arm28_optimize_states
version=1
nRows=16
nColumns=21
inDegrees=yes

# SIMM Motion File Header:
name arm28_optimize_states
datacolumns 21
datarows 16
otherdata 1
range 0.64665625 0.65159592
endheader
time	r_shoulder_elev	r_elbow_flex	r_shoulder_elev_u	r_elbow_flex_u	TRIlong.activation	TRIlong.fiber_length	TRIlat.activation	TRIlat.fiber_length	TRImed.activation	TRImed.fiber_length	BIClong.activation	BIClong.fiber_length	BICshort.activation	BICshort.fiber_length	BRA.activation	BRA.fiber_length	DeltAnt.activation	DeltAnt.fiber_length	DeltPost.activation	DeltPost.fiber_length
      0.64665625	     -9.77426491	     59.27040402	    150.22878647	    -61.68695942	      0.01087509	      0.15351495	      0.01186820	      0.09396132	      0.01191947	      0.08891256	      0.07009411	      0.12169517	      0.09347802	      0.12248315	      0.08345852	      0.07885990	      0.04728502	      0.16776453	      0.01776805	      0.09965483
      0.64696825	     -9.72733547	     59.25113889	    150.60246461	    -61.80825132	      0.01087428	      0.15353627	      0.01186672	      0.09395445	      0.01191805	      0.08890568	      0.06998695	      0.12169709	      0.09368875	      0.12248001	      0.08354265	      0.07886505	      0.04735246	      0.16773830	      0.01773931	      0.09970024
      0.64728025	     -9.68028964	     59.23183619	    150.97454911	    -61.92721971	      0.01087346	      0.15355766	      0.01186524	      0.09394756	      0.01191663	      0.08889879	      0.06987965	      0.12169903	      0.09389948	      0.12247689	      0.08362678	      0.07887022	      0.04741991	      0.16771199	      0.01771068	      0.09974661
      0.64768507	     -9.61907466	     59.20673570	    151.45745841	    -62.08210930	      0.01087240	      0.15358551	      0.01186331	      0.09393860	      0.01191477	      0.08888983	      0.06974018	      0.12170156	      0.09417291	      0.12247289	      0.08373594	      0.07887694	      0.04750742	      0.16767775	      0.01767370	      0.09980589
      0.64798992	     -9.57284809	     59.18779271	    151.81910112	    -62.19580879	      0.01087160	      0.15360655	      0.01186185	      0.09393183	      0.01191338	      0.08888307	      0.06963499	      0.12170347	      0.09437881	      0.12246990	      0.08381814	      0.07888200	      0.04757332	      0.16765188	      0.01764598	      0.09985184
      0.64829476	     -9.52651124	     59.16881499	    152.18142643	    -62.31081967	      0.01087079	      0.15362765	      0.01186040	      0.09392505	      0.01191198	      0.08887628	      0.06952966	      0.12170540	      0.09458471	      0.12246694	      0.08390034	      0.07888708	      0.04763922	      0.16762594	      0.01761837	      0.09989661
      0.64859961	     -9.48006413	     59.14980246	    152.54223727	    -62.42366074	      0.01086999	      0.15364881	      0.01185894	      0.09391826	      0.01191057	      0.08886949	      0.06942418	      0.12170733	      0.09479062	      0.12246400	      0.08398254	      0.07889217	      0.04770512	      0.16759993	      0.01759087	      0.09994227
      0.64900682	     -9.41785004	     59.12435258	    153.02426485	    -62.57488147	      0.01086891	      0.15367716	      0.01185698	      0.09390916	      0.01190870	      0.08886039	      0.06928306	      0.12170993	      0.09506565	      0.12246012	      0.08409235	      0.07889898	      0.04779314	      0.16756509	      0.01755430	      0.10000241
      0.64930429	     -9.37227784	     59.10572236	    153.37441492	    -62.68249464	      0.01086812	      0.15369795	      0.01185555	      0.09390249	      0.01190732	      0.08885373	      0.06917980	      0.12171183	      0.09526657	      0.12245730	      0.08417256	      0.07890397	      0.04785745	      0.16753955	      0.01752771	      0.10004765
      0.64960176	     -9.32660145	     59.08706005	    153.72523390	    -62.79142347	      0.01086734	      0.15371879	      0.01185412	      0.09389582	      0.01190594	      0.08884705	      0.06907642	      0.12171374	      0.09546749	      0.12245451	      0.08425277	      0.07890896	      0.04792175	      0.16751395	      0.01750122	      0.10009170
      0.64996086	     -9.27132281	     59.06448834	    154.14672128	    -62.92006237	      0.01086638	      0.15374403	      0.01185239	      0.09388774	      0.01190428	      0.08883898	      0.06895143	      0.12171606	      0.09571004	      0.12245118	      0.08434960	      0.07891501	      0.04799938	      0.16748295	      0.01746937	      0.10014613
      0.65031996	     -9.21589293	     59.04187054	    154.56903813	    -63.05041365	      0.01086542	      0.15376935	      0.01185065	      0.09387965	      0.01190261	      0.08883088	      0.06882625	      0.12171839	      0.09595258	      0.12244788	      0.08444643	      0.07892106	      0.04807701	      0.16745186	      0.01743767	      0.10019908
      0.65059484	     -9.17336010	     59.02452566	    154.88983696	    -63.14652895	      0.01086469	      0.15378879	      0.01184932	      0.09387344	      0.01190133	      0.08882468	      0.06873030	      0.12172018	      0.09613825	      0.12244537	      0.08452055	      0.07892570	      0.04813643	      0.16742800	      0.01741350	      0.10024147
      0.65086973	     -9.13073901	     59.00715421	    155.21146244	    -63.24420349	      0.01086396	      0.15380827	      0.01184798	      0.09386722	      0.01190004	      0.08881845	      0.06863423	      0.12172198	      0.09632391	      0.12244289	      0.08459467	      0.07893035	      0.04819585	      0.16740408	      0.01738942	      0.10028252
      0.65123282	     -9.07430549	     58.98416740	    155.63449338	    -63.37073427	      0.01086298	      0.15383409	      0.01184621	      0.09385898	      0.01189835	      0.08881022	      0.06850717	      0.12172436	      0.09656916	      0.12243964	      0.08469258	      0.07893650	      0.04827435	      0.16737240	      0.01735774	      0.10033781
      0.65159592	     -9.01771853	     58.96113481	    156.05791499	    -63.49833669	      0.01086201	      0.15385999	      0.01184444	      0.09385073	      0.01189665	      0.08880197	      0.06837991	      0.12172675	      0.09681440	      0.12243642	      0.08479049	      0.07894267	      0.04835284	      0.16734061	      0.01732620	      0.10039196
